<mxfile host="app.diagrams.net" modified="2024-04-09T17:24:00.821Z" agent="Mozilla/5.0 (Windows NT 10.0; Win64; x64) AppleWebKit/537.36 (KHTML, like Gecko) Chrome/123.0.0.0 Safari/537.36" etag="TpCgGxVmozHOaSvvpmFP" version="24.2.3" type="device">
  <diagram id="C5RBs43oDa-KdzZeNtuy" name="Page-1">
    <mxGraphModel dx="956" dy="492" grid="1" gridSize="10" guides="1" tooltips="1" connect="1" arrows="1" fold="1" page="1" pageScale="1" pageWidth="827" pageHeight="1169" math="0" shadow="0">
      <root>
        <mxCell id="WIyWlLk6GJQsqaUBKTNV-0" />
        <mxCell id="WIyWlLk6GJQsqaUBKTNV-1" parent="WIyWlLk6GJQsqaUBKTNV-0" />
        <mxCell id="DYZTg-4OWaBqLyQdNOK5-3" style="edgeStyle=orthogonalEdgeStyle;rounded=0;orthogonalLoop=1;jettySize=auto;html=1;entryX=0.5;entryY=0;entryDx=0;entryDy=0;" edge="1" parent="WIyWlLk6GJQsqaUBKTNV-1" source="DYZTg-4OWaBqLyQdNOK5-0" target="DYZTg-4OWaBqLyQdNOK5-2">
          <mxGeometry relative="1" as="geometry" />
        </mxCell>
        <mxCell id="DYZTg-4OWaBqLyQdNOK5-0" value="Start" style="ellipse;whiteSpace=wrap;html=1;" vertex="1" parent="WIyWlLk6GJQsqaUBKTNV-1">
          <mxGeometry x="160" width="120" height="50" as="geometry" />
        </mxCell>
        <mxCell id="DYZTg-4OWaBqLyQdNOK5-6" style="edgeStyle=orthogonalEdgeStyle;rounded=0;orthogonalLoop=1;jettySize=auto;html=1;entryX=0.5;entryY=0;entryDx=0;entryDy=0;" edge="1" parent="WIyWlLk6GJQsqaUBKTNV-1" source="DYZTg-4OWaBqLyQdNOK5-2" target="DYZTg-4OWaBqLyQdNOK5-4">
          <mxGeometry relative="1" as="geometry" />
        </mxCell>
        <mxCell id="DYZTg-4OWaBqLyQdNOK5-2" value="LST Eingabe" style="shape=parallelogram;perimeter=parallelogramPerimeter;whiteSpace=wrap;html=1;fixedSize=1;" vertex="1" parent="WIyWlLk6GJQsqaUBKTNV-1">
          <mxGeometry x="160" y="70" width="120" height="40" as="geometry" />
        </mxCell>
        <mxCell id="DYZTg-4OWaBqLyQdNOK5-8" style="edgeStyle=orthogonalEdgeStyle;rounded=0;orthogonalLoop=1;jettySize=auto;html=1;entryX=0.5;entryY=0;entryDx=0;entryDy=0;" edge="1" parent="WIyWlLk6GJQsqaUBKTNV-1" source="DYZTg-4OWaBqLyQdNOK5-4" target="DYZTg-4OWaBqLyQdNOK5-7">
          <mxGeometry relative="1" as="geometry" />
        </mxCell>
        <mxCell id="DYZTg-4OWaBqLyQdNOK5-4" value="GUI erstellt neuen PIC" style="rounded=0;whiteSpace=wrap;html=1;" vertex="1" parent="WIyWlLk6GJQsqaUBKTNV-1">
          <mxGeometry x="160" y="140" width="120" height="40" as="geometry" />
        </mxCell>
        <mxCell id="DYZTg-4OWaBqLyQdNOK5-11" style="edgeStyle=orthogonalEdgeStyle;rounded=0;orthogonalLoop=1;jettySize=auto;html=1;entryX=0.5;entryY=0;entryDx=0;entryDy=0;" edge="1" parent="WIyWlLk6GJQsqaUBKTNV-1" source="DYZTg-4OWaBqLyQdNOK5-7" target="DYZTg-4OWaBqLyQdNOK5-9">
          <mxGeometry relative="1" as="geometry" />
        </mxCell>
        <mxCell id="DYZTg-4OWaBqLyQdNOK5-7" value="PIC führt reset durch &amp;amp;&lt;div&gt;NOP wird geladen&lt;br&gt;&lt;div&gt;&lt;br&gt;&lt;/div&gt;&lt;/div&gt;" style="rounded=0;whiteSpace=wrap;html=1;" vertex="1" parent="WIyWlLk6GJQsqaUBKTNV-1">
          <mxGeometry x="160" y="210" width="120" height="60" as="geometry" />
        </mxCell>
        <mxCell id="DYZTg-4OWaBqLyQdNOK5-13" style="edgeStyle=orthogonalEdgeStyle;rounded=0;orthogonalLoop=1;jettySize=auto;html=1;entryX=0.5;entryY=0;entryDx=0;entryDy=0;" edge="1" parent="WIyWlLk6GJQsqaUBKTNV-1" source="DYZTg-4OWaBqLyQdNOK5-9" target="DYZTg-4OWaBqLyQdNOK5-12">
          <mxGeometry relative="1" as="geometry" />
        </mxCell>
        <mxCell id="DYZTg-4OWaBqLyQdNOK5-9" value="&lt;div&gt;&lt;div&gt;Abarbeiten des aktuellen Befehls&lt;/div&gt;&lt;/div&gt;" style="rounded=0;whiteSpace=wrap;html=1;" vertex="1" parent="WIyWlLk6GJQsqaUBKTNV-1">
          <mxGeometry x="160" y="300" width="120" height="60" as="geometry" />
        </mxCell>
        <mxCell id="DYZTg-4OWaBqLyQdNOK5-17" style="edgeStyle=orthogonalEdgeStyle;rounded=0;orthogonalLoop=1;jettySize=auto;html=1;entryX=0.5;entryY=0;entryDx=0;entryDy=0;" edge="1" parent="WIyWlLk6GJQsqaUBKTNV-1" source="DYZTg-4OWaBqLyQdNOK5-12" target="DYZTg-4OWaBqLyQdNOK5-15">
          <mxGeometry relative="1" as="geometry" />
        </mxCell>
        <mxCell id="DYZTg-4OWaBqLyQdNOK5-12" value="&lt;div&gt;&lt;div&gt;Laden / decodieren des nächsten Befehls&lt;/div&gt;&lt;/div&gt;" style="rounded=0;whiteSpace=wrap;html=1;" vertex="1" parent="WIyWlLk6GJQsqaUBKTNV-1">
          <mxGeometry x="160" y="390" width="120" height="60" as="geometry" />
        </mxCell>
        <mxCell id="DYZTg-4OWaBqLyQdNOK5-18" style="edgeStyle=orthogonalEdgeStyle;rounded=0;orthogonalLoop=1;jettySize=auto;html=1;entryX=1;entryY=0.5;entryDx=0;entryDy=0;" edge="1" parent="WIyWlLk6GJQsqaUBKTNV-1" source="DYZTg-4OWaBqLyQdNOK5-15" target="DYZTg-4OWaBqLyQdNOK5-16">
          <mxGeometry relative="1" as="geometry" />
        </mxCell>
        <mxCell id="DYZTg-4OWaBqLyQdNOK5-20" style="edgeStyle=orthogonalEdgeStyle;rounded=0;orthogonalLoop=1;jettySize=auto;html=1;entryX=1;entryY=0.5;entryDx=0;entryDy=0;exitX=0.5;exitY=1;exitDx=0;exitDy=0;" edge="1" parent="WIyWlLk6GJQsqaUBKTNV-1" source="DYZTg-4OWaBqLyQdNOK5-15" target="DYZTg-4OWaBqLyQdNOK5-2">
          <mxGeometry relative="1" as="geometry">
            <Array as="points">
              <mxPoint x="220" y="600" />
              <mxPoint x="330" y="600" />
              <mxPoint x="330" y="90" />
            </Array>
          </mxGeometry>
        </mxCell>
        <mxCell id="DYZTg-4OWaBqLyQdNOK5-15" value="Befehl == null" style="rhombus;whiteSpace=wrap;html=1;" vertex="1" parent="WIyWlLk6GJQsqaUBKTNV-1">
          <mxGeometry x="170" y="480" width="100" height="80" as="geometry" />
        </mxCell>
        <mxCell id="DYZTg-4OWaBqLyQdNOK5-19" style="edgeStyle=orthogonalEdgeStyle;rounded=0;orthogonalLoop=1;jettySize=auto;html=1;entryX=0;entryY=0.5;entryDx=0;entryDy=0;" edge="1" parent="WIyWlLk6GJQsqaUBKTNV-1" source="DYZTg-4OWaBqLyQdNOK5-16" target="DYZTg-4OWaBqLyQdNOK5-9">
          <mxGeometry relative="1" as="geometry">
            <Array as="points">
              <mxPoint x="60" y="330" />
            </Array>
          </mxGeometry>
        </mxCell>
        <mxCell id="DYZTg-4OWaBqLyQdNOK5-16" value="&lt;div&gt;&lt;div&gt;Programmcounter&lt;/div&gt;&lt;/div&gt;&lt;div&gt;erhöhen&lt;/div&gt;" style="rounded=0;whiteSpace=wrap;html=1;" vertex="1" parent="WIyWlLk6GJQsqaUBKTNV-1">
          <mxGeometry y="490" width="120" height="60" as="geometry" />
        </mxCell>
        <mxCell id="DYZTg-4OWaBqLyQdNOK5-21" value="Nein" style="text;html=1;align=center;verticalAlign=middle;whiteSpace=wrap;rounded=0;" vertex="1" parent="WIyWlLk6GJQsqaUBKTNV-1">
          <mxGeometry x="120" y="500" width="60" height="30" as="geometry" />
        </mxCell>
        <mxCell id="DYZTg-4OWaBqLyQdNOK5-22" value="Ja" style="text;html=1;align=center;verticalAlign=middle;whiteSpace=wrap;rounded=0;" vertex="1" parent="WIyWlLk6GJQsqaUBKTNV-1">
          <mxGeometry x="201" y="562" width="60" height="30" as="geometry" />
        </mxCell>
        <mxCell id="DYZTg-4OWaBqLyQdNOK5-23" value="&lt;h1 style=&quot;margin-top: 0px;&quot;&gt;Funktionsablauf&lt;/h1&gt;&lt;p&gt;Der FileReader bekommt eine LST Datei welche er interpretiert und in eine Array-Liste von LSTLine und InstructionLine umwandelt.&lt;/p&gt;&lt;p&gt;Das PIC Objekt wird mit der InstructionLine-Liste initialisiert und lädt die Befehle in seinen Programmspeicher.&lt;/p&gt;&lt;p&gt;Des weiteren erstellt der PIC bei der Initialisierung auch seinen RAM, mit Standardwerten und führt einen Reset durch. Der PIC hat dann die NoOperation-Instruktion geladen.&lt;/p&gt;&lt;p&gt;&lt;br&gt;&lt;/p&gt;&lt;p&gt;Wird in der UI der nächste Schritt aufgerufen wir dann die momentan geladenen Instruktion abgearbeitet.&lt;br&gt;=&amp;gt; Das passiert im InstructionHandler, welcher mithilfe von Switch Case den aktuellen Befehl auswertet und die passende Funktionen aufruft.&lt;br&gt;&lt;/p&gt;&lt;p&gt;Der NOP führt beim Ausführen keine Aktion aus.&lt;/p&gt;&lt;p&gt;Nach der Ausführung wird die benötigte Zeit addiert, die die Ausführung des jeweiligen Befehles benötigt hat. Dies wird mit den Zyklen und Quarzfrequenz berechnet (Siehe Datenblatt).&lt;/p&gt;&lt;p&gt;Nachdem dies geschehen ist, wird die nächste Instruktion vorbereitet.&lt;br&gt;=&amp;gt; Hierzu wird:&lt;/p&gt;&lt;p&gt;&lt;span style=&quot;white-space: pre;&quot;&gt;&#x9;&lt;/span&gt;- Interrupt prüfen&lt;br&gt;&lt;span style=&quot;white-space: pre;&quot;&gt;&#x9;&lt;/span&gt;- nächsten Befehl laden&lt;br&gt;&lt;span style=&quot;white-space: pre;&quot;&gt;&#x9;&lt;/span&gt;- ProgrammCounter erhöhen&lt;br&gt;&lt;br&gt;Jetzt kann in der UI der nächste Schritt ausgeführt werden.&lt;/p&gt;" style="text;html=1;whiteSpace=wrap;overflow=hidden;rounded=0;" vertex="1" parent="WIyWlLk6GJQsqaUBKTNV-1">
          <mxGeometry x="400" y="40" width="400" height="480" as="geometry" />
        </mxCell>
      </root>
    </mxGraphModel>
  </diagram>
</mxfile>
